<svg id="visual" viewBox="0 0 1920 220" width="1920" height="220" xmlns="http://www.w3.org/2000/svg" xmlns:xlink="http://www.w3.org/1999/xlink" version="1.1"><path d="M0 124L17.8 133.2C35.7 142.3 71.3 160.7 106.8 152.5C142.3 144.3 177.7 109.7 213.2 87C248.7 64.3 284.3 53.7 320 65.3C355.7 77 391.3 111 426.8 125C462.3 139 497.7 133 533.2 124.5C568.7 116 604.3 105 640 114C675.7 123 711.3 152 746.8 151.5C782.3 151 817.7 121 853.2 108.5C888.7 96 924.3 101 960 98.8C995.7 96.7 1031.3 87.3 1066.8 84.2C1102.3 81 1137.7 84 1173.2 101.8C1208.7 119.7 1244.3 152.3 1280 140.7C1315.7 129 1351.3 73 1386.8 53C1422.3 33 1457.7 49 1493.2 56.5C1528.7 64 1564.3 63 1600 79C1635.7 95 1671.3 128 1706.8 121.5C1742.3 115 1777.7 69 1813.2 44.3C1848.7 19.7 1884.3 16.3 1902.2 14.7L1920 13L1920 0L1902.2 0C1884.3 0 1848.7 0 1813.2 0C1777.7 0 1742.3 0 1706.8 0C1671.3 0 1635.7 0 1600 0C1564.3 0 1528.7 0 1493.2 0C1457.7 0 1422.3 0 1386.8 0C1351.3 0 1315.7 0 1280 0C1244.3 0 1208.7 0 1173.2 0C1137.7 0 1102.3 0 1066.8 0C1031.3 0 995.7 0 960 0C924.3 0 888.7 0 853.2 0C817.7 0 782.3 0 746.8 0C711.3 0 675.7 0 640 0C604.3 0 568.7 0 533.2 0C497.7 0 462.3 0 426.8 0C391.3 0 355.7 0 320 0C284.3 0 248.7 0 213.2 0C177.7 0 142.3 0 106.8 0C71.3 0 35.7 0 17.8 0L0 0Z" fill="#013766" stroke-linecap="round" stroke-linejoin="miter"></path></svg>