<svg id="visual" viewBox="0 0 1920 540" width="1920" height="540" xmlns="http://www.w3.org/2000/svg" xmlns:xlink="http://www.w3.org/1999/xlink" version="1.1"><path d="M0 335L17.8 319.8C35.7 304.7 71.3 274.3 106.8 287.7C142.3 301 177.7 358 213.2 395.3C248.7 432.7 284.3 450.3 320 431.2C355.7 412 391.3 356 426.8 332.8C462.3 309.7 497.7 319.3 533.2 333.2C568.7 347 604.3 365 640 350.3C675.7 335.7 711.3 288.3 746.8 289.2C782.3 290 817.7 339 853.2 359.5C888.7 380 924.3 372 960 375.7C995.7 379.3 1031.3 394.7 1066.8 399.8C1102.3 405 1137.7 400 1173.2 370.8C1208.7 341.7 1244.3 288.3 1280 307.5C1315.7 326.7 1351.3 418.3 1386.8 451C1422.3 483.7 1457.7 457.3 1493.2 445C1528.7 432.7 1564.3 434.3 1600 408.2C1635.7 382 1671.3 328 1706.8 338.7C1742.3 349.3 1777.7 424.7 1813.2 465.2C1848.7 505.7 1884.3 511.3 1902.2 514.2L1920 517L1920 541L1902.2 541C1884.3 541 1848.7 541 1813.2 541C1777.7 541 1742.3 541 1706.8 541C1671.3 541 1635.7 541 1600 541C1564.3 541 1528.7 541 1493.2 541C1457.7 541 1422.3 541 1386.8 541C1351.3 541 1315.7 541 1280 541C1244.3 541 1208.7 541 1173.2 541C1137.7 541 1102.3 541 1066.8 541C1031.3 541 995.7 541 960 541C924.3 541 888.7 541 853.2 541C817.7 541 782.3 541 746.8 541C711.3 541 675.7 541 640 541C604.3 541 568.7 541 533.2 541C497.7 541 462.3 541 426.8 541C391.3 541 355.7 541 320 541C284.3 541 248.7 541 213.2 541C177.7 541 142.3 541 106.8 541C71.3 541 35.7 541 17.8 541L0 541Z" fill="#013766" stroke-linecap="round" stroke-linejoin="miter"></path></svg>